<?xml version="1.0" standalone="no"?>
<!DOCTYPE svg PUBLIC "-//W3C//DTD SVG 20010904//EN"
 "http://www.w3.org/TR/2001/REC-SVG-20010904/DTD/svg10.dtd">
<svg version="1.0" xmlns="http://www.w3.org/2000/svg"
 width="657.000000pt" height="380.000000pt" viewBox="0 0 657.000000 380.000000"
 preserveAspectRatio="xMidYMid meet">

<g transform="translate(0.000000,380.000000) scale(0.100000,-0.100000)"
fill="#000000" stroke="none">
<path d="M1566 3669 c-150 -37 -195 -232 -77 -332 46 -39 90 -47 251 -47 l145
0 182 -1090 c139 -835 187 -1101 203 -1136 14 -28 38 -55 64 -72 l41 -27 1131
0 1131 0 41 29 c118 82 107 262 -20 327 -36 18 -76 19 -1047 19 l-1011 0 -5
23 c-10 46 -25 141 -25 159 0 17 49 18 1123 20 l1122 3 45 25 c84 47 79 28
190 805 55 384 100 711 100 728 -1 75 -64 156 -138 177 -25 6 -490 10 -1388
10 l-1352 0 -17 111 c-26 172 -46 213 -118 252 -40 20 -56 22 -287 24 -135 1
-263 -2 -284 -8z m1454 -964 l0 -195 -308 0 -309 0 -27 168 c-16 92 -30 179
-33 195 l-5 27 341 0 341 0 0 -195z m780 0 l0 -195 -295 0 -295 0 0 195 0 195
295 0 295 0 0 -195z m935 173 c-2 -13 -14 -93 -25 -178 -12 -85 -23 -163 -26
-172 -5 -17 -30 -18 -350 -18 l-344 0 0 195 0 195 375 0 375 0 -5 -22z m-1715
-753 l0 -195 -259 0 -259 0 -6 28 c-12 58 -56 333 -56 347 0 13 38 15 290 15
l290 0 0 -195z m780 0 l0 -195 -295 0 -295 0 0 195 0 195 295 0 295 0 0 -195z
m850 176 c0 -11 -11 -96 -25 -191 -14 -95 -25 -174 -25 -176 0 -2 -137 -4
-305 -4 l-305 0 0 195 0 195 330 0 c318 0 330 -1 330 -19z"/>
<path d="M2625 740 c-68 -26 -115 -68 -150 -131 -27 -48 -30 -63 -30 -139 0
-68 5 -93 22 -125 92 -172 310 -213 455 -86 87 76 116 226 64 336 -62 133
-223 198 -361 145z"/>
<path d="M4391 749 c-119 -36 -201 -147 -201 -271 0 -80 15 -126 59 -184 101
-134 307 -147 426 -29 138 139 106 366 -65 459 -59 32 -158 44 -219 25z"/>
</g>
</svg>
